<?xml version="1.0" encoding="utf-8"?>
<!-- Generator: Adobe Illustrator 24.0.1, SVG Export Plug-In . SVG Version: 6.00 Build 0)  -->
<svg version="1.1" id="Layer_1" xmlns="http://www.w3.org/2000/svg" xmlns:xlink="http://www.w3.org/1999/xlink" x="0px" y="0px"
	 viewBox="0 0 32 32" style="enable-background:new 0 0 32 32;" xml:space="preserve">
<style type="text/css">
	.st0{fill:none;stroke:#FF6D00;stroke-linecap:round;stroke-linejoin:round;}
</style>
<path class="st0" d="M8,12c0,2.1,0.8,4.2,2.3,5.7c1.5,1.5,3.5,2.3,5.7,2.3s4.2-0.8,5.7-2.3c1.5-1.5,2.3-3.5,2.3-5.7
	c0-2.1-0.8-4.2-2.3-5.7C20.2,4.8,18.1,4,16,4s-4.2,0.8-5.7,2.3C8.8,7.8,8,9.9,8,12z"/>
<path class="st0" d="M16,20l4.5,7.9l2.1-4.3l4.8,0.3L22.9,16"/>
<path class="st0" d="M9.1,16l-4.5,7.9l4.8-0.3l2.1,4.3L16,20"/>
</svg>
