<?xml version="1.0" encoding="utf-8"?>
<!-- Generator: Adobe Illustrator 24.0.1, SVG Export Plug-In . SVG Version: 6.00 Build 0)  -->
<svg version="1.1" id="Layer_1" xmlns="http://www.w3.org/2000/svg" xmlns:xlink="http://www.w3.org/1999/xlink" x="0px" y="0px"
	 viewBox="0 0 32 32" style="enable-background:new 0 0 32 32;" xml:space="preserve">
<style type="text/css">
	.st0{fill:none;stroke:#FF6D00;stroke-linecap:round;stroke-linejoin:round;}
</style>
<path class="st0" d="M18.7,26.7c0-0.7-0.3-1.4-0.8-1.9C17.4,24.3,16.7,24,16,24c-0.7,0-1.4,0.3-1.9,0.8c-0.5,0.5-0.8,1.2-0.8,1.9
	c0,0.7,0.3,1.4,0.8,1.9c0.5,0.5,1.2,0.8,1.9,0.8c0.7,0,1.4-0.3,1.9-0.8C18.4,28.1,18.7,27.4,18.7,26.7z"/>
<path class="st0" d="M18.7,5.3c0-0.7-0.3-1.4-0.8-1.9c-0.5-0.5-1.2-0.8-1.9-0.8c-0.7,0-1.4,0.3-1.9,0.8c-0.5,0.5-0.8,1.2-0.8,1.9
	s0.3,1.4,0.8,1.9C14.6,7.7,15.3,8,16,8c0.7,0,1.4-0.3,1.9-0.8C18.4,6.7,18.7,6,18.7,5.3z"/>
<path class="st0" d="M8,16c0-0.7-0.3-1.4-0.8-1.9c-0.5-0.5-1.2-0.8-1.9-0.8c-0.7,0-1.4,0.3-1.9,0.8S2.7,15.3,2.7,16
	c0,0.7,0.3,1.4,0.8,1.9c0.5,0.5,1.2,0.8,1.9,0.8c0.7,0,1.4-0.3,1.9-0.8C7.7,17.4,8,16.7,8,16z"/>
<path class="st0" d="M29.3,16c0-0.7-0.3-1.4-0.8-1.9c-0.5-0.5-1.2-0.8-1.9-0.8c-0.7,0-1.4,0.3-1.9,0.8C24.3,14.6,24,15.3,24,16
	c0,0.7,0.3,1.4,0.8,1.9c0.5,0.5,1.2,0.8,1.9,0.8c0.7,0,1.4-0.3,1.9-0.8C29.1,17.4,29.3,16.7,29.3,16z"/>
<path class="st0" d="M18.7,16c0-0.7-0.3-1.4-0.8-1.9c-0.5-0.5-1.2-0.8-1.9-0.8c-0.7,0-1.4,0.3-1.9,0.8c-0.5,0.5-0.8,1.2-0.8,1.9
	c0,0.7,0.3,1.4,0.8,1.9c0.5,0.5,1.2,0.8,1.9,0.8c0.7,0,1.4-0.3,1.9-0.8C18.4,17.4,18.7,16.7,18.7,16z"/>
<path class="st0" d="M8,16h5.3"/>
<path class="st0" d="M18.7,16H24"/>
<path class="st0" d="M18,7.3l6.7,6.7"/>
<path class="st0" d="M7.3,18l6.7,6.7"/>
<path class="st0" d="M18,24.7l6.7-6.7"/>
<path class="st0" d="M14,7.3L7.3,14"/>
<path class="st0" d="M16,8v5.3"/>
<path class="st0" d="M16,18.7V24"/>
</svg>
